<svg xmlns="http://www.w3.org/2000/svg" viewBox="0 0 512 512">
    <path d="M226.5 92.9c14.3 42.9-.3 86.2-32.6 96.8s-70.1-15.6-84.4-58.5s.3-86.2 32.6-96.8s70.1 15.6 84.4 58.5zM100.4 198.6c18.9 32.4 14.3 70.1-10.2 84.1s-59.7-.9-78.5-33.3S-2.7 179.3 21.8 165.3s59.7 .9 78.5 33.3zM442.9 192.3c-18.9 32.4-53.9 47.3-78.5 33.3s-29.1-51.7-10.2-84.1s53.9-47.3 78.5-33.3s29.1 51.7 10.2 84.1zM274 91c12.2-46.7 54.7-74.1 94.9-61.2s63.3 58.6 51.1 105.3s-54.7 74.1-94.9 61.2S261.8 137.7 274 91zM388.2 419.5c-42.3 35.8-112.5 31.2-156.9-10.3c-1.6-1.5-3.3-3.1-4.9-4.7c-17.7-17.5-31.5-37.4-41.2-58.8c-1.6-3.4-3-6.9-4.3-10.4c-11.8-31.2-12.2-61.8-1.5-88.6c13.7-34.1 46.5-56.1 82.8-57.5c11.9-.4 24.1 1.1 36.1 4.7c16.3 4.9 31.6 13.5 45.1 24.9c1.9 1.6 3.7 3.3 5.4 5c30.1 30.2 43.1 72.9 37.1 113.8c-2 13.3-5.9 26.2-11.5 38.3c-1.3 2.9-2.7 5.7-4.2 8.5c-7.9 14.9-18.3 28.5-30.3 40.2l-1.8 1.8z" fill="#2D5A27"/>
</svg>
